#!OML:ASF E:\id_vita\Project 1\Capture day 1\Session 1\Male1.ASF
:FULLY-SPECIFIED
:DEGREES
391
root 7.80245 16.313 1.42151 -90.5721 95.1481 -94.3385
lowerback -4.23853 -0.929948 -10.0161
upperback 1.8443 -0.471649 -2.25018
thorax 4.39872 -0.451082 3.22254
lowerneck -8.1243 0.718043 7.89482
upperneck 7.99757 0.0730025 -0.188827
head 4.12807 0.297882 -1.4742
rclavicle -9.74045e-015 -1.27222e-014
rhumerus -27.7418 -14.6474 -85.2961
rradius 15.8066
rwrist 13.8357
rhand -27.2054 40.1752
rfingers 7.12502
rthumb -0.618442 10.1963
lclavicle -9.74045e-015 -1.27222e-014
lhumerus -31.2515 31.8839 67.0835
lradius 9.58025
lwrist -26.1296
lhand -8.99542 45.8005
lfingers 7.12502
lthumb 16.9508 75.0809
rfemur -2.10506 1.1843 15.9005
rtibia 54.5643
rfoot 11.4463 2.88682
rtoes 18.5347
lfemur -20.117 8.16944 -28.6396
ltibia 24.4648
lfoot -15.8262 -11.4584
ltoes 4.8907
392
root 7.92996 16.3238 1.39977 -90.9067 95.6069 -94.5558
lowerback -4.19495 -1.00816 -10.4198
upperback 1.95239 -0.538374 -2.33741
thorax 4.50509 -0.499407 3.34771
lowerneck -8.29727 0.747986 8.01957
upperneck 7.7574 0.111532 -0.513465
head 4.08236 0.296042 -1.60548
rclavicle 2.38542e-015 3.57812e-014
rhumerus -27.7965 -16.1619 -84.5961
rradius 14.9138
rwrist 15.4358
rhand -27.054 40.25
rfingers 7.12502
rthumb -0.472208 10.2708
lclavicle 2.38542e-015 3.57812e-014
lhumerus -30.388 32.5609 67.4433
lradius 9.85439
lwrist -27.4451
lhand -8.97782 44.8893
lfingers 7.12502
lthumb 16.9678 74.1681
rfemur -3.45294 1.13972 15.2388
rtibia 56.6446
rfoot 10.5329 3.01144
rtoes 17.1918
lfemur -19.1894 7.9167 -29.094
ltibia 24.0518
lfoot -15.8587 -11.0872
ltoes 5.7312
393
root 8.05679 16.3374 1.38094 -88.6847 95.9312 -92.2478
lowerback -4.0865 -1.15148 -10.7066
upperback 1.95759 -0.719788 -2.38731
thorax 4.48011 -0.593673 3.43962
lowerneck -8.32531 0.874574 8.30745
upperneck 7.88207 0.268052 -0.812538
head 4.14753 0.371301 -1.75286
rclavicle 1.05853e-014 2.62396e-014
rhumerus -28.2359 -17.3879 -83.9083
rradius 14.4118
rwrist 16.7381
rhand -27.0009 40.0426
rfingers 7.12502
rthumb -0.420928 10.0632
lclavicle 1.05853e-014 2.62396e-014
lhumerus -29.9716 33.0072 67.4956
lradius 10.3668
lwrist -28.4752
lhand -9.41398 43.6503
lfingers 7.12502
lthumb 16.5479 72.9647
rfemur -4.68666 0.775764 14.7474
rtibia 58.5144
rfoot 9.10352 3.17833
rtoes 16.1807
lfemur -18.4314 7.92944 -29.5079
ltibia 23.7128
lfoot -16.094 -11.1832
ltoes 6.04025
394
root 8.17909 16.346 1.36235 -88.1769 96.0072 -91.626
lowerback -4.03703 -1.20326 -10.7344
upperback 2.07904 -0.784635 -2.36062
thorax 4.59129 -0.635928 3.47618
lowerneck -8.5746 0.76573 8.14891
upperneck 7.84778 0.111606 -0.757121
head 4.17438 0.290171 -1.716
rclavicle 1.1281e-014 -1.43125e-014
rhumerus -28.4232 -18.3288 -83.3404
rradius 13.964
rwrist 17.7471
rhand -27.1001 40.4228
rfingers 7.12502
rthumb -0.516735 10.4437
lclavicle 1.1281e-014 -1.43125e-014
lhumerus -28.0646 29.378 70.266
lradius 11.0784
lwrist -24.876
lhand -9.77932 43.5744
lfingers 7.12502
lthumb 16.1961 72.9178
rfemur -5.92097 0.475046 14.5545
rtibia 60.2096
rfoot 7.23144 3.25767
rtoes 16.1272
lfemur -17.7261 8.04193 -29.657
ltibia 23.5058
lfoot -16.5539 -11.015
ltoes 5.4447
395
root 8.29731 16.3507 1.34235 -89.6278 95.9486 -92.9864
lowerback -4.0441 -1.17986 -10.5907
upperback 2.27188 -0.748923 -2.31042
thorax 4.79249 -0.630861 3.44943
lowerneck -8.76247 0.810882 8.3935
upperneck 7.97296 0.167725 -1.20696
head 3.82736 0.289765 -1.71237
rclavicle 1.4064e-014 2.90226e-014
rhumerus -28.4093 -19.2304 -82.8418
rradius 13.5009
rwrist 18.6463
rhand -26.9768 41.6577
rfingers 7.12502
rthumb -0.397706 11.6783
lclavicle 1.4064e-014 2.90226e-014
lhumerus -26.3514 27.0595 72.2888
lradius 11.7832
lwrist -22.6708
lhand -9.87904 44.0248
lfingers 7.12502
lthumb 16.1001 73.376
rfemur -7.26526 0.435576 14.5336
rtibia 61.7212
rfoot 5.49528 3.25428
rtoes 16.5792
lfemur -17.0783 7.80578 -29.5814
ltibia 23.4753
lfoot -17.0055 -10.2585
ltoes 5.48434
396
root 8.41528 16.3504 1.32111 -89.0673 95.8709 -92.302
lowerback -3.93838 -1.20103 -10.3586
upperback 2.43777 -0.791248 -2.32076
thorax 4.90831 -0.654479 3.30554
lowerneck -9.11164 0.790961 8.20992
upperneck 7.92279 0.117585 -1.06678
head 3.86662 0.264534 -1.64245
rclavicle -6.31141e-015 -3.61788e-014
rhumerus -28.5804 -20.7163 -82.1758
rradius 13.1139
rwrist 20.2699
rhand -26.9918 41.7866
rfingers 7.12502
rthumb -0.412159 11.8073
lclavicle -6.31141e-015 -3.61788e-014
lhumerus -24.7223 24.9513 73.9429
lradius 12.4024
lwrist -20.8212
lhand -9.9972 44.6994
lfingers 7.12502
lthumb 15.9863 74.0598
rfemur -8.51215 0.314824 14.5489
rtibia 63.0012
rfoot 4.06352 3.11293
rtoes 14.4919
lfemur -16.4395 7.3779 -29.4774
ltibia 23.5691
lfoot -17.4338 -9.59828
ltoes 5.68601
